<?xml version="1.0" encoding="UTF-8" standalone="no"?>
<svg
        xmlns:dc="http://purl.org/dc/elements/1.1/"
        xmlns:cc="http://creativecommons.org/ns#"
        xmlns:rdf="http://www.w3.org/1999/02/22-rdf-syntax-ns#"
        xmlns:sodipodi="http://sodipodi.sourceforge.net/DTD/sodipodi-0.dtd"
        xmlns:inkscape="http://www.inkscape.org/namespaces/inkscape"
        xmlns="http://www.w3.org/2000/svg"
        viewBox="0 0 72.933731 298.82895"
        height="298.82895"
        width="72.933731"
        xml:space="preserve"
        id="svg2"
        version="1.1"
        sodipodi:docname="right_baner.svg"
        inkscape:version="0.92.4 (fd57863, 2020-04-02)"
        inkscape:export-filename="/home/thomas/IdeaProjects/ZenInitie/src/view/resources/images/right_baner.png"
        inkscape:export-xdpi="614.69501"
        inkscape:export-ydpi="614.69501"><sodipodi:namedview
     pagecolor="#ffffff"
     bordercolor="#666666"
     borderopacity="1"
     objecttolerance="10"
     gridtolerance="10"
     guidetolerance="10"
     inkscape:pageopacity="0"
     inkscape:pageshadow="2"
     inkscape:window-width="1853"
     inkscape:window-height="1025"
     id="namedview3931"
     showgrid="false"
     inkscape:zoom="1.055"
     inkscape:cx="24.144585"
     inkscape:cy="179.74622"
     inkscape:window-x="67"
     inkscape:window-y="27"
     inkscape:window-maximized="1"
     inkscape:current-layer="g4543" />
    <metadata
            id="metadata8"><rdf:RDF><cc:Work
         rdf:about=""><dc:format>image/svg+xml</dc:format><dc:type
            rdf:resource="http://purl.org/dc/dcmitype/StillImage"/><dc:title/></cc:Work></rdf:RDF></metadata>
    <defs
            id="defs6"><clipPath
       id="clipPath26"
       clipPathUnits="userSpaceOnUse"><path
         id="path24"
         d="M 0,600 H 600 V 0 H 0 Z"
         inkscape:connector-curvature="0" /></clipPath></defs>
    <g
            id="g82"
            transform="matrix(1.3333333,0,0,-1.3333333,130.69599,185.88106)"/>
    <g
            id="g4543"
            transform="rotate(90,288.5499,26.589957)"><g
       transform="matrix(1.3333333,0,0,-1.3333333,301.22727,245.66438)"
       id="g116" />
        <g
                id="g4586"><path
         transform="matrix(1.3333333,0,0,-1.3333333,505.60354,315.13958)"
         d="m 0,0 h 41.389 l -6.231,17.659 6.231,17.659 H 0 Z"
         style="fill:#8e092f;fill-opacity:1;fill-rule:nonzero;stroke:none"
         id="path84"
         inkscape:connector-curvature="0" />
            <g
                    id="g86"
                    transform="matrix(1.3333333,0,0,-1.3333333,317.14527,315.13958)"><path
           d="m 0,0 h -41.389 l 6.231,17.659 -6.231,17.659 H 0 Z"
           style="fill:#8e092f;fill-opacity:1;fill-rule:nonzero;stroke:none"
           id="path88"
           inkscape:connector-curvature="0" /></g>
            <g
                    id="g90"
                    transform="matrix(1.3333333,0,0,-1.3333333,270.03448,271.86612)"><path
           d="m 0,0 h -1.89 c -0.261,0 -0.472,0.211 -0.472,0.473 0,0.26 0.211,0.472 0.472,0.472 H 0 C 0.261,0.945 0.473,0.733 0.473,0.473 0.473,0.211 0.261,0 0,0 M 3.78,0 H 1.89 C 1.63,0 1.418,0.211 1.418,0.473 c 0,0.26 0.212,0.472 0.472,0.472 H 3.78 C 4.042,0.945 4.253,0.733 4.253,0.473 4.253,0.211 4.042,0 3.78,0 M 7.562,0 H 5.671 C 5.41,0 5.198,0.211 5.198,0.473 c 0,0.26 0.212,0.472 0.473,0.472 h 1.891 c 0.26,0 0.472,-0.212 0.472,-0.472 C 8.034,0.211 7.822,0 7.562,0 m 3.78,0 H 9.452 C 9.19,0 8.979,0.211 8.979,0.473 c 0,0.26 0.211,0.472 0.473,0.472 h 1.89 c 0.261,0 0.472,-0.212 0.472,-0.472 C 11.814,0.211 11.603,0 11.342,0 m 3.78,0 h -1.891 c -0.259,0 -0.471,0.211 -0.471,0.473 0,0.26 0.212,0.472 0.471,0.472 h 1.891 c 0.262,0 0.473,-0.212 0.473,-0.472 C 15.595,0.211 15.384,0 15.122,0 m 3.781,0 h -1.89 c -0.261,0 -0.473,0.211 -0.473,0.473 0,0.26 0.212,0.472 0.473,0.472 h 1.89 c 0.261,0 0.473,-0.212 0.473,-0.472 C 19.376,0.211 19.164,0 18.903,0 m 3.781,0 h -1.89 c -0.262,0 -0.473,0.211 -0.473,0.473 0,0.26 0.211,0.472 0.473,0.472 h 1.89 c 0.26,0 0.472,-0.212 0.472,-0.472 C 23.156,0.211 22.944,0 22.684,0 m 3.78,0 h -1.891 c -0.26,0 -0.471,0.211 -0.471,0.473 0,0.26 0.211,0.472 0.471,0.472 h 1.891 c 0.262,0 0.473,-0.212 0.473,-0.472 C 26.937,0.211 26.726,0 26.464,0 m 3.781,0 h -1.891 c -0.26,0 -0.472,0.211 -0.472,0.473 0,0.26 0.212,0.472 0.472,0.472 h 1.891 c 0.261,0 0.473,-0.212 0.473,-0.472 C 30.718,0.211 30.506,0 30.245,0 m 2.961,0 h -1.07 c -0.262,0 -0.473,0.211 -0.473,0.473 0,0.26 0.211,0.472 0.473,0.472 h 1.07 c 0.262,0 0.473,-0.212 0.473,-0.472 C 33.679,0.211 33.468,0 33.206,0"
           style="fill:#ffffff;fill-opacity:1;fill-rule:nonzero;stroke:none"
           id="path92"
           inkscape:connector-curvature="0" /></g>
            <g
                    id="g94"
                    transform="matrix(1.3333333,0,0,-1.3333333,270.03448,312.97038)"><path
           d="m 0,0 h -1.89 c -0.261,0 -0.472,0.211 -0.472,0.473 0,0.26 0.211,0.472 0.472,0.472 H 0 C 0.261,0.945 0.473,0.733 0.473,0.473 0.473,0.211 0.261,0 0,0 M 3.78,0 H 1.89 C 1.63,0 1.418,0.211 1.418,0.473 c 0,0.26 0.212,0.472 0.472,0.472 H 3.78 C 4.042,0.945 4.253,0.733 4.253,0.473 4.253,0.211 4.042,0 3.78,0 M 7.562,0 H 5.671 C 5.41,0 5.198,0.211 5.198,0.473 c 0,0.26 0.212,0.472 0.473,0.472 h 1.891 c 0.26,0 0.472,-0.212 0.472,-0.472 C 8.034,0.211 7.822,0 7.562,0 m 3.78,0 H 9.452 C 9.19,0 8.979,0.211 8.979,0.473 c 0,0.26 0.211,0.472 0.473,0.472 h 1.89 c 0.261,0 0.472,-0.212 0.472,-0.472 C 11.814,0.211 11.603,0 11.342,0 m 3.78,0 h -1.891 c -0.259,0 -0.471,0.211 -0.471,0.473 0,0.26 0.212,0.472 0.471,0.472 h 1.891 c 0.262,0 0.473,-0.212 0.473,-0.472 C 15.595,0.211 15.384,0 15.122,0 m 3.781,0 h -1.89 c -0.261,0 -0.473,0.211 -0.473,0.473 0,0.26 0.212,0.472 0.473,0.472 h 1.89 c 0.261,0 0.473,-0.212 0.473,-0.472 C 19.376,0.211 19.164,0 18.903,0 m 3.781,0 h -1.89 c -0.262,0 -0.473,0.211 -0.473,0.473 0,0.26 0.211,0.472 0.473,0.472 h 1.89 c 0.26,0 0.472,-0.212 0.472,-0.472 C 23.156,0.211 22.944,0 22.684,0 m 3.78,0 h -1.891 c -0.26,0 -0.471,0.211 -0.471,0.473 0,0.26 0.211,0.472 0.471,0.472 h 1.891 c 0.262,0 0.473,-0.212 0.473,-0.472 C 26.937,0.211 26.726,0 26.464,0 m 3.781,0 h -1.891 c -0.26,0 -0.472,0.211 -0.472,0.473 0,0.26 0.212,0.472 0.472,0.472 h 1.891 c 0.261,0 0.473,-0.212 0.473,-0.472 C 30.718,0.211 30.506,0 30.245,0 m 2.961,0 h -1.07 c -0.262,0 -0.473,0.211 -0.473,0.473 0,0.26 0.211,0.472 0.473,0.472 h 1.07 c 0.262,0 0.473,-0.212 0.473,-0.472 C 33.679,0.211 33.468,0 33.206,0"
           style="fill:#ffffff;fill-opacity:1;fill-rule:nonzero;stroke:none"
           id="path96"
           inkscape:connector-curvature="0" /></g>
            <g
                    id="g98"
                    transform="matrix(1.3333333,0,0,-1.3333333,510.81967,271.86612)"><path
           d="m 0,0 h -1.889 c -0.261,0 -0.472,0.211 -0.472,0.473 0,0.26 0.211,0.472 0.472,0.472 H 0 C 0.262,0.945 0.473,0.733 0.473,0.473 0.473,0.211 0.262,0 0,0 M 3.781,0 H 1.891 C 1.629,0 1.418,0.211 1.418,0.473 c 0,0.26 0.211,0.472 0.473,0.472 h 1.89 C 4.043,0.945 4.254,0.733 4.254,0.473 4.254,0.211 4.043,0 3.781,0 M 7.563,0 H 5.672 C 5.41,0 5.199,0.211 5.199,0.473 c 0,0.26 0.211,0.472 0.473,0.472 H 7.563 C 7.822,0.945 8.035,0.733 8.035,0.473 8.035,0.211 7.822,0 7.563,0 m 3.779,0 H 9.453 C 9.191,0 8.98,0.211 8.98,0.473 c 0,0.26 0.211,0.472 0.473,0.472 h 1.889 c 0.262,0 0.472,-0.212 0.472,-0.472 C 11.814,0.211 11.604,0 11.342,0 m 3.781,0 h -1.891 c -0.261,0 -0.472,0.211 -0.472,0.473 0,0.26 0.211,0.472 0.472,0.472 h 1.891 c 0.262,0 0.473,-0.212 0.473,-0.472 C 15.596,0.211 15.385,0 15.123,0 m 3.781,0 h -1.89 c -0.262,0 -0.473,0.211 -0.473,0.473 0,0.26 0.211,0.472 0.473,0.472 h 1.89 c 0.26,0 0.473,-0.212 0.473,-0.472 C 19.377,0.211 19.164,0 18.904,0 m 3.78,0 h -1.889 c -0.262,0 -0.473,0.211 -0.473,0.473 0,0.26 0.211,0.472 0.473,0.472 h 1.889 c 0.261,0 0.472,-0.212 0.472,-0.472 C 23.156,0.211 22.945,0 22.684,0 m 3.781,0 h -1.891 c -0.261,0 -0.472,0.211 -0.472,0.473 0,0.26 0.211,0.472 0.472,0.472 h 1.891 c 0.262,0 0.473,-0.212 0.473,-0.472 C 26.938,0.211 26.727,0 26.465,0 m 3.781,0 h -1.891 c -0.261,0 -0.472,0.211 -0.472,0.473 0,0.26 0.211,0.472 0.472,0.472 h 1.891 c 0.26,0 0.473,-0.212 0.473,-0.472 C 30.719,0.211 30.506,0 30.246,0 m 3.779,0 h -1.888 c -0.262,0 -0.473,0.211 -0.473,0.473 0,0.26 0.211,0.472 0.473,0.472 h 1.888 c 0.262,0 0.473,-0.212 0.473,-0.472 C 34.498,0.211 34.287,0 34.025,0"
           style="fill:#ffffff;fill-opacity:1;fill-rule:nonzero;stroke:none"
           id="path100"
           inkscape:connector-curvature="0" /></g>
            <g
                    id="g102"
                    transform="matrix(1.3333333,0,0,-1.3333333,510.81967,312.97038)"><path
           d="m 0,0 h -1.889 c -0.261,0 -0.472,0.211 -0.472,0.473 0,0.26 0.211,0.472 0.472,0.472 H 0 C 0.262,0.945 0.473,0.733 0.473,0.473 0.473,0.211 0.262,0 0,0 M 3.781,0 H 1.891 C 1.629,0 1.418,0.211 1.418,0.473 c 0,0.26 0.211,0.472 0.473,0.472 h 1.89 C 4.043,0.945 4.254,0.733 4.254,0.473 4.254,0.211 4.043,0 3.781,0 M 7.563,0 H 5.672 C 5.41,0 5.199,0.211 5.199,0.473 c 0,0.26 0.211,0.472 0.473,0.472 H 7.563 C 7.822,0.945 8.035,0.733 8.035,0.473 8.035,0.211 7.822,0 7.563,0 m 3.779,0 H 9.453 C 9.191,0 8.98,0.211 8.98,0.473 c 0,0.26 0.211,0.472 0.473,0.472 h 1.889 c 0.262,0 0.472,-0.212 0.472,-0.472 C 11.814,0.211 11.604,0 11.342,0 m 3.781,0 h -1.891 c -0.261,0 -0.472,0.211 -0.472,0.473 0,0.26 0.211,0.472 0.472,0.472 h 1.891 c 0.262,0 0.473,-0.212 0.473,-0.472 C 15.596,0.211 15.385,0 15.123,0 m 3.781,0 h -1.89 c -0.262,0 -0.473,0.211 -0.473,0.473 0,0.26 0.211,0.472 0.473,0.472 h 1.89 c 0.26,0 0.473,-0.212 0.473,-0.472 C 19.377,0.211 19.164,0 18.904,0 m 3.78,0 h -1.889 c -0.262,0 -0.473,0.211 -0.473,0.473 0,0.26 0.211,0.472 0.473,0.472 h 1.889 c 0.261,0 0.472,-0.212 0.472,-0.472 C 23.156,0.211 22.945,0 22.684,0 m 3.781,0 h -1.891 c -0.261,0 -0.472,0.211 -0.472,0.473 0,0.26 0.211,0.472 0.472,0.472 h 1.891 c 0.262,0 0.473,-0.212 0.473,-0.472 C 26.938,0.211 26.727,0 26.465,0 m 3.781,0 h -1.891 c -0.261,0 -0.472,0.211 -0.472,0.473 0,0.26 0.211,0.472 0.472,0.472 h 1.891 c 0.26,0 0.473,-0.212 0.473,-0.472 C 30.719,0.211 30.506,0 30.246,0 m 3.779,0 h -1.888 c -0.262,0 -0.473,0.211 -0.473,0.473 0,0.26 0.211,0.472 0.473,0.472 h 1.888 c 0.262,0 0.473,-0.212 0.473,-0.472 C 34.498,0.211 34.287,0 34.025,0"
           style="fill:#ffffff;fill-opacity:1;fill-rule:nonzero;stroke:none"
           id="path104"
           inkscape:connector-curvature="0" /></g>
            <g
                    id="g106"
                    transform="matrix(1.3333333,0,0,-1.3333333,527.7598,289.29452)"><path
           d="M 0,0 -16.617,-19.384 V 15.935 H 0 Z"
           style="fill:#6d0321;fill-opacity:1;fill-rule:nonzero;stroke:none"
           id="path108"
           inkscape:connector-curvature="0" /></g>
            <g
                    id="g110"
                    transform="matrix(1.3333333,0,0,-1.3333333,294.99154,289.29452)"><path
           d="M 0,0 16.615,-19.384 V 15.935 H 0 Z"
           style="fill:#6d0321;fill-opacity:1;fill-rule:nonzero;stroke:none"
           id="path112"
           inkscape:connector-curvature="0" /></g>
            <g
                    id="g4565"><path
           inkscape:connector-curvature="0"
           id="path114"
           style="fill:#b31e3b;fill-opacity:1;fill-rule:nonzero;stroke:none;stroke-width:1.33333325"
           d="M 527.7598,289.29412 H 294.99181 v -47.088 H 527.7598 Z" /></g>
            <g
                    id="g120"
                    transform="matrix(1.3333333,0,0,-1.3333333,301.22727,286.76852)"><path
           d="m 0,0 h -1.89 c -0.261,0 -0.472,0.211 -0.472,0.473 0,0.26 0.211,0.472 0.472,0.472 H 0 C 0.261,0.945 0.473,0.733 0.473,0.473 0.473,0.211 0.261,0 0,0 M 3.78,0 H 1.89 C 1.63,0 1.418,0.211 1.418,0.473 c 0,0.26 0.212,0.472 0.472,0.472 H 3.78 C 4.042,0.945 4.253,0.733 4.253,0.473 4.253,0.211 4.042,0 3.78,0 M 7.562,0 H 5.671 C 5.41,0 5.198,0.211 5.198,0.473 c 0,0.26 0.212,0.472 0.473,0.472 h 1.891 c 0.26,0 0.472,-0.212 0.472,-0.472 C 8.034,0.211 7.822,0 7.562,0 m 3.78,0 H 9.452 C 9.19,0 8.979,0.211 8.979,0.473 c 0,0.26 0.211,0.472 0.473,0.472 h 1.89 c 0.261,0 0.472,-0.212 0.472,-0.472 C 11.814,0.211 11.603,0 11.342,0 m 3.78,0 h -1.891 c -0.259,0 -0.471,0.211 -0.471,0.473 0,0.26 0.212,0.472 0.471,0.472 h 1.891 c 0.262,0 0.473,-0.212 0.473,-0.472 C 15.595,0.211 15.384,0 15.122,0 m 3.781,0 h -1.89 c -0.261,0 -0.473,0.211 -0.473,0.473 0,0.26 0.212,0.472 0.473,0.472 h 1.89 c 0.261,0 0.473,-0.212 0.473,-0.472 C 19.376,0.211 19.164,0 18.903,0 m 3.781,0 h -1.89 c -0.262,0 -0.473,0.211 -0.473,0.473 0,0.26 0.211,0.472 0.473,0.472 h 1.89 c 0.26,0 0.472,-0.212 0.472,-0.472 C 23.156,0.211 22.944,0 22.684,0 m 3.78,0 h -1.891 c -0.26,0 -0.471,0.211 -0.471,0.473 0,0.26 0.211,0.472 0.471,0.472 h 1.891 c 0.262,0 0.473,-0.212 0.473,-0.472 C 26.937,0.211 26.726,0 26.464,0 m 3.781,0 h -1.891 c -0.26,0 -0.472,0.211 -0.472,0.473 0,0.26 0.212,0.472 0.472,0.472 h 1.891 c 0.261,0 0.473,-0.212 0.473,-0.472 C 30.718,0.211 30.506,0 30.245,0 m 3.78,0 h -1.889 c -0.262,0 -0.473,0.211 -0.473,0.473 0,0.26 0.211,0.472 0.473,0.472 h 1.889 c 0.261,0 0.473,-0.212 0.473,-0.472 C 34.498,0.211 34.286,0 34.025,0 m 3.781,0 h -1.89 c -0.261,0 -0.473,0.211 -0.473,0.473 0,0.26 0.212,0.472 0.473,0.472 h 1.89 c 0.261,0 0.472,-0.212 0.472,-0.472 C 38.278,0.211 38.067,0 37.806,0 m 3.781,0 h -1.891 c -0.26,0 -0.472,0.211 -0.472,0.473 0,0.26 0.212,0.472 0.472,0.472 h 1.891 c 0.261,0 0.473,-0.212 0.473,-0.472 C 42.06,0.211 41.848,0 41.587,0 m 3.78,0 h -1.889 c -0.262,0 -0.473,0.211 -0.473,0.473 0,0.26 0.211,0.472 0.473,0.472 h 1.889 c 0.261,0 0.473,-0.212 0.473,-0.472 C 45.84,0.211 45.628,0 45.367,0 m 3.78,0 h -1.889 c -0.261,0 -0.473,0.211 -0.473,0.473 0,0.26 0.212,0.472 0.473,0.472 h 1.889 c 0.262,0 0.473,-0.212 0.473,-0.472 C 49.62,0.211 49.409,0 49.147,0 m 3.782,0 h -1.891 c -0.261,0 -0.473,0.211 -0.473,0.473 0,0.26 0.212,0.472 0.473,0.472 h 1.891 c 0.26,0 0.472,-0.212 0.472,-0.472 C 53.401,0.211 53.189,0 52.929,0 m 3.78,0 h -1.89 c -0.261,0 -0.472,0.211 -0.472,0.473 0,0.26 0.211,0.472 0.472,0.472 h 1.89 c 0.261,0 0.473,-0.212 0.473,-0.472 C 57.182,0.211 56.97,0 56.709,0 m 3.78,0 H 58.6 c -0.261,0 -0.473,0.211 -0.473,0.473 0,0.26 0.212,0.472 0.473,0.472 h 1.889 c 0.262,0 0.473,-0.212 0.473,-0.472 C 60.962,0.211 60.751,0 60.489,0 m 3.782,0 H 62.38 c -0.261,0 -0.473,0.211 -0.473,0.473 0,0.26 0.212,0.472 0.473,0.472 h 1.891 c 0.261,0 0.472,-0.212 0.472,-0.472 C 64.743,0.211 64.532,0 64.271,0 m 3.781,0 h -1.891 c -0.262,0 -0.473,0.211 -0.473,0.473 0,0.26 0.211,0.472 0.473,0.472 h 1.891 c 0.26,0 0.472,-0.212 0.472,-0.472 C 68.524,0.211 68.312,0 68.052,0 m 3.779,0 H 69.94 c -0.259,0 -0.472,0.211 -0.472,0.473 0,0.26 0.213,0.472 0.472,0.472 h 1.891 c 0.262,0 0.473,-0.212 0.473,-0.472 C 72.304,0.211 72.093,0 71.831,0 m 3.781,0 h -1.89 c -0.262,0 -0.473,0.211 -0.473,0.473 0,0.26 0.211,0.472 0.473,0.472 h 1.89 c 0.262,0 0.473,-0.212 0.473,-0.472 C 76.085,0.211 75.874,0 75.612,0 m 3.782,0 h -1.891 c -0.262,0 -0.473,0.211 -0.473,0.473 0,0.26 0.211,0.472 0.473,0.472 h 1.891 c 0.259,0 0.472,-0.212 0.472,-0.472 C 79.866,0.211 79.653,0 79.394,0 m 3.779,0 h -1.891 c -0.26,0 -0.472,0.211 -0.472,0.473 0,0.26 0.212,0.472 0.472,0.472 h 1.891 c 0.262,0 0.473,-0.212 0.473,-0.472 C 83.646,0.211 83.435,0 83.173,0 m 3.781,0 h -1.891 c -0.261,0 -0.472,0.211 -0.472,0.473 0,0.26 0.211,0.472 0.472,0.472 h 1.891 c 0.262,0 0.473,-0.212 0.473,-0.472 C 87.427,0.211 87.216,0 86.954,0 m 3.781,0 h -1.89 c -0.262,0 -0.473,0.211 -0.473,0.473 0,0.26 0.211,0.472 0.473,0.472 h 1.89 c 0.26,0 0.473,-0.212 0.473,-0.472 C 91.208,0.211 90.995,0 90.735,0 m 3.78,0 h -1.891 c -0.26,0 -0.473,0.211 -0.473,0.473 0,0.26 0.213,0.472 0.473,0.472 h 1.891 c 0.261,0 0.472,-0.212 0.472,-0.472 C 94.987,0.211 94.776,0 94.515,0 m 3.781,0 h -1.891 c -0.261,0 -0.472,0.211 -0.472,0.473 0,0.26 0.211,0.472 0.472,0.472 h 1.891 c 0.262,0 0.473,-0.212 0.473,-0.472 C 98.769,0.211 98.558,0 98.296,0 m 3.781,0 h -1.89 c -0.262,0 -0.473,0.211 -0.473,0.473 0,0.26 0.211,0.472 0.473,0.472 h 1.89 c 0.26,0 0.473,-0.212 0.473,-0.472 C 102.55,0.211 102.337,0 102.077,0 m 3.779,0 h -1.89 c -0.26,0 -0.473,0.211 -0.473,0.473 0,0.26 0.213,0.472 0.473,0.472 h 1.89 c 0.262,0 0.473,-0.212 0.473,-0.472 C 106.329,0.211 106.118,0 105.856,0 m 3.782,0 h -1.891 c -0.262,0 -0.473,0.211 -0.473,0.473 0,0.26 0.211,0.472 0.473,0.472 h 1.891 c 0.261,0 0.472,-0.212 0.472,-0.472 C 110.11,0.211 109.899,0 109.638,0 m 3.781,0 h -1.891 c -0.261,0 -0.472,0.211 -0.472,0.473 0,0.26 0.211,0.472 0.472,0.472 h 1.891 c 0.26,0 0.473,-0.212 0.473,-0.472 C 113.892,0.211 113.679,0 113.419,0 m 3.779,0 h -1.89 c -0.26,0 -0.473,0.211 -0.473,0.473 0,0.26 0.213,0.472 0.473,0.472 h 1.89 c 0.262,0 0.473,-0.212 0.473,-0.472 C 117.671,0.211 117.46,0 117.198,0 m 3.781,0 h -1.89 c -0.262,0 -0.473,0.211 -0.473,0.473 0,0.26 0.211,0.472 0.473,0.472 h 1.89 c 0.262,0 0.473,-0.212 0.473,-0.472 C 121.452,0.211 121.241,0 120.979,0 m 3.782,0 h -1.891 c -0.262,0 -0.473,0.211 -0.473,0.473 0,0.26 0.211,0.472 0.473,0.472 h 1.891 c 0.26,0 0.472,-0.212 0.472,-0.472 C 125.233,0.211 125.021,0 124.761,0 m 3.779,0 h -1.891 c -0.259,0 -0.472,0.211 -0.472,0.473 0,0.26 0.213,0.472 0.472,0.472 h 1.891 c 0.262,0 0.473,-0.212 0.473,-0.472 C 129.013,0.211 128.802,0 128.54,0 m 3.781,0 h -1.89 c -0.262,0 -0.473,0.211 -0.473,0.473 0,0.26 0.211,0.472 0.473,0.472 h 1.89 c 0.262,0 0.473,-0.212 0.473,-0.472 C 132.794,0.211 132.583,0 132.321,0 m 3.782,0 h -1.891 c -0.262,0 -0.473,0.211 -0.473,0.473 0,0.26 0.211,0.472 0.473,0.472 h 1.891 c 0.259,0 0.472,-0.212 0.472,-0.472 C 136.575,0.211 136.362,0 136.103,0 m 3.779,0 h -1.891 c -0.26,0 -0.472,0.211 -0.472,0.473 0,0.26 0.212,0.472 0.472,0.472 h 1.891 c 0.262,0 0.472,-0.212 0.472,-0.472 0,-0.262 -0.21,-0.473 -0.472,-0.473 m 3.781,0 h -1.891 c -0.261,0 -0.472,0.211 -0.472,0.473 0,0.26 0.211,0.472 0.472,0.472 h 1.891 c 0.262,0 0.473,-0.212 0.473,-0.472 C 144.136,0.211 143.925,0 143.663,0 m 3.781,0 h -1.89 c -0.262,0 -0.473,0.211 -0.473,0.473 0,0.26 0.211,0.472 0.473,0.472 h 1.89 c 0.26,0 0.473,-0.212 0.473,-0.472 C 147.917,0.211 147.704,0 147.444,0 m 3.78,0 h -1.891 c -0.26,0 -0.473,0.211 -0.473,0.473 0,0.26 0.213,0.472 0.473,0.472 h 1.891 c 0.261,0 0.472,-0.212 0.472,-0.472 C 151.696,0.211 151.485,0 151.224,0 m 3.781,0 h -1.891 c -0.261,0 -0.472,0.211 -0.472,0.473 0,0.26 0.211,0.472 0.472,0.472 h 1.891 c 0.262,0 0.473,-0.212 0.473,-0.472 C 155.478,0.211 155.267,0 155.005,0 m 3.781,0 h -1.89 c -0.262,0 -0.473,0.211 -0.473,0.473 0,0.26 0.211,0.472 0.473,0.472 h 1.89 c 0.26,0 0.473,-0.212 0.473,-0.472 C 159.259,0.211 159.046,0 158.786,0 m 3.779,0 h -1.89 c -0.26,0 -0.473,0.211 -0.473,0.473 0,0.26 0.213,0.472 0.473,0.472 h 1.89 c 0.262,0 0.473,-0.212 0.473,-0.472 C 163.038,0.211 162.827,0 162.565,0 m 3.782,0 h -1.891 c -0.262,0 -0.473,0.211 -0.473,0.473 0,0.26 0.211,0.472 0.473,0.472 h 1.891 c 0.261,0 0.472,-0.212 0.472,-0.472 C 166.819,0.211 166.608,0 166.347,0"
           style="fill:#ffffff;fill-opacity:1;fill-rule:nonzero;stroke:none"
           id="path122"
           inkscape:connector-curvature="0" /></g></g></g></svg>